<?xml version="1.0" encoding="UTF-8"?>
<!-- Generated by Pixelmator Pro Trial 3.6.8 -->
<svg width="512" height="512" viewBox="0 0 512 512" xmlns="http://www.w3.org/2000/svg">
    <g id="Layer-1">
        <g id="Group">
            <g id="g1">
                <path id="Path" fill="#7accc8" stroke="none" d="M 307.619141 52.453583 C 286.50766 24.74704 265.546844 7.618805 264.664886 6.903687 L 256.115265 -0.036133 L 247.565598 6.902802 C 246.68364 7.617889 225.730469 24.735992 204.612137 52.452759 C 176.16153 89.790985 161.123245 128.731384 161.123245 165.064301 C 161.123245 201.396301 176.16153 240.336548 204.612137 277.673035 C 220.04718 297.930817 235.53833 312.631165 242.54715 318.900085 L 242.54715 511.581024 L 248.580338 511.581024 C 260.215973 511.581024 269.682465 502.114594 269.682465 490.478851 L 269.682465 318.900085 C 276.692108 312.629333 292.185028 297.929016 307.619141 277.673035 C 336.06897 240.336548 351.106323 201.396301 351.106323 165.064301 C 351.106323 128.730469 336.06897 89.79007 307.619141 52.453583 Z M 269.682465 254.735626 L 294.915131 227.815582 C 302.872314 219.327209 302.43985 205.947174 293.952332 197.991028 L 289.550232 193.863831 L 269.682465 215.058807 L 269.682465 177.986145 L 294.915131 151.066101 C 302.872314 142.576996 302.43985 129.197021 293.952332 121.239807 L 289.550232 117.112732 L 269.682465 138.307739 L 269.682465 88.662994 L 263.649292 88.662994 C 252.013657 88.662994 242.54715 98.128662 242.54715 109.764282 L 242.54715 138.307739 L 222.679367 117.112732 L 218.278152 121.239807 C 214.171463 125.089417 211.809921 130.314758 211.627762 135.953796 C 211.445572 141.592834 213.465714 146.960327 217.315323 151.066101 L 242.54715 177.986145 L 242.54715 215.058807 L 222.679367 193.863831 L 218.278152 197.991028 C 214.171463 201.839813 211.809921 207.065002 211.627762 212.704102 C 211.445572 218.342285 213.465714 223.708893 217.315323 227.815582 L 242.54715 254.735626 L 242.54715 280.705475 C 236.638245 274.283081 231.099655 267.680542 226.019897 260.999329 C 208.793762 238.337585 188.259445 203.299683 188.259445 165.064301 C 188.259445 126.826141 208.793762 91.788147 226.019897 69.128876 C 237.44101 54.105896 249.040039 42.3367 256.115265 35.63858 C 263.19043 42.337555 274.790283 54.108521 286.210541 69.128876 C 303.436737 91.788147 323.971039 126.826141 323.971039 165.064301 C 323.971039 203.299683 303.436737 238.337585 286.210541 260.999329 C 281.135071 267.675293 275.595673 274.278076 269.682465 280.705475 L 269.682465 254.735626 Z"/>
            </g>
        </g>
    </g>
</svg>
